<?xml version="1.0" encoding="iso-8859-1"?>
<!-- Generator: Adobe Illustrator 19.0.0, SVG Export Plug-In . SVG Version: 6.00 Build 0)  -->
<svg version="1.1" id="Capa_1" xmlns="http://www.w3.org/2000/svg" xmlns:xlink="http://www.w3.org/1999/xlink" x="0px" y="0px"
	 viewBox="0 0 512 512" style="enable-background:new 0 0 512 512;" xml:space="preserve">
<polygon style="fill:#C1C1C1;" points="127,88.5 38.333,88.5 38.333,152.5 0,152.5 0,182.5 38.333,182.5 38.333,423.5 68.333,423.5
	68.333,363.833 127,363.833 "/>
<polygon style="fill:#585858;" points="118,88.5 58.591,231.084 117.429,395.833 512,395.833 512,88.5 "/>
<rect x="305.41" y="88.5" style="fill:#2D2D2D;" width="206.59" height="307.33"/>
<g>
	<path style="fill:#FF4F19;" d="M432.011,142.038h-82.95l-43.651,43.651l-43.655-43.655h-82.95l-58.655,58.655v82.951l58.655,58.655
		h82.95l43.651-43.651l43.655,43.655h82.95l58.655-58.655v-82.951L432.011,142.038z M249.329,312.295H191.23l-41.081-41.081v-58.097
		l41.081-41.081h58.099l41.077,41.078v58.105L249.329,312.295z M460.667,271.217l-41.081,41.082h-58.099l-41.077-41.078v-58.105
		l41.077-41.078h58.099l41.081,41.082V271.217z"/>

		<rect x="205.279" y="227.161" transform="matrix(-0.7071 -0.7071 0.7071 -0.7071 204.8053 569.1558)" style="fill:#FF4F19;" width="30" height="30"/>
</g>
<g>

		<rect x="375.543" y="227.169" transform="matrix(-0.7071 -0.7071 0.7071 -0.7071 495.4582 689.5639)" style="fill:#D13100;" width="30" height="30"/>
	<path style="fill:#D13100;" d="M432.012,142.038h-82.95l-43.651,43.651l-0.002-0.002v112.958l43.653,43.653h82.95l58.655-58.655
		v-82.951L432.012,142.038z M460.667,271.217l-41.081,41.082h-58.099l-41.077-41.078v-58.105l41.077-41.078h58.099l41.081,41.082
		V271.217z"/>
</g>
<g>
</g>
<g>
</g>
<g>
</g>
<g>
</g>
<g>
</g>
<g>
</g>
<g>
</g>
<g>
</g>
<g>
</g>
<g>
</g>
<g>
</g>
<g>
</g>
<g>
</g>
<g>
</g>
<g>
</g>
</svg>
